<svg xmlns="http://www.w3.org/2000/svg" viewBox="0 0 48 48"><defs><linearGradient id="gN" x1="24" y1="3.2" x2="24" y2="24" gradientUnits="userSpaceOnUse"><stop offset="0" stop-color="#8FB4FF"/><stop offset="1" stop-color="#2E6BFF"/></linearGradient><linearGradient id="gE" x1="44.8" y1="24" x2="24" y2="24" gradientUnits="userSpaceOnUse"><stop offset="0" stop-color="#2E6BFF"/><stop offset="1" stop-color="#7A5CFF"/></linearGradient><linearGradient id="gW" x1="3.2" y1="24" x2="24" y2="24" gradientUnits="userSpaceOnUse"><stop offset="0" stop-color="#2E6BFF"/><stop offset="1" stop-color="#7A5CFF"/></linearGradient><linearGradient id="gS" x1="24" y1="44.8" x2="24" y2="24" gradientUnits="userSpaceOnUse"><stop offset="0" stop-color="#FF6A2D"/><stop offset="0.42" stop-color="#FF4D6D"/><stop offset="1" stop-color="#7A5CFF"/></linearGradient></defs><path d="M19.05 19.05C19.39 19.54 20.48 21.27 21.10 22.01C21.72 22.76 22.28 23.24 22.78 23.54C23.27 23.83 23.71 23.89 24.09 23.79C24.46 23.68 24.78 23.36 25.04 22.91C25.30 22.46 25.50 21.83 25.65 21.09C25.80 20.34 25.89 19.44 25.93 18.46C25.97 17.48 25.96 16.36 25.90 15.20C25.83 14.03 26.02 12.76 25.55 11.46C25.08 10.16 23.60 7.41 23.08 7.41C22.56 7.41 22.61 10.16 22.45 11.46C22.28 12.76 22.17 14.03 22.10 15.20C22.04 16.36 22.03 17.48 22.07 18.46C22.11 19.44 22.20 20.34 22.35 21.09C22.50 21.83 22.70 22.46 22.96 22.91C23.22 23.36 23.54 23.68 23.91 23.79C24.29 23.89 24.73 23.83 25.22 23.54C25.72 23.24 26.28 22.76 26.90 22.01C27.52 21.27 28.68 19.45 28.95 19.05C29.22 18.65 28.65 19.41 28.51 19.59C28.37 19.76 28.24 19.93 28.11 20.10C27.98 20.26 27.86 20.42 27.74 20.57C27.62 20.72 27.51 20.87 27.40 21.01C27.30 21.15 27.20 21.28 27.10 21.40C27.00 21.53 26.91 21.65 26.82 21.75C26.73 21.86 26.65 21.96 26.57 22.05C26.49 22.14 26.47 22.23 26.35 22.30C26.22 22.36 26.01 22.42 25.84 22.46C25.67 22.51 25.49 22.54 25.31 22.56C25.13 22.58 24.95 22.59 24.77 22.58C24.59 22.58 24.41 22.56 24.23 22.53C24.05 22.50 23.88 22.46 23.70 22.41C23.53 22.36 23.36 22.30 23.20 22.22C23.03 22.15 22.87 22.07 22.72 21.97C22.57 21.88 22.44 21.71 22.30 21.65C22.15 21.60 22.00 21.65 21.86 21.62C21.72 21.59 21.58 21.55 21.45 21.48C21.32 21.42 21.19 21.34 21.06 21.25C20.93 21.16 20.80 21.05 20.68 20.93C20.55 20.81 20.42 20.68 20.29 20.54C20.16 20.40 20.04 20.25 19.90 20.09C19.77 19.93 19.63 19.76 19.49 19.59C19.35 19.41 19.12 19.14 19.05 19.05Z" fill="url(#gN)"/><path d="M28.95 19.05C28.46 19.39 26.73 20.48 25.99 21.10C25.24 21.72 24.76 22.28 24.46 22.78C24.17 23.27 24.11 23.71 24.21 24.09C24.32 24.46 24.64 24.78 25.09 25.04C25.54 25.30 26.17 25.50 26.91 25.65C27.66 25.80 28.56 25.89 29.54 25.93C30.52 25.97 31.64 25.96 32.80 25.90C33.97 25.83 35.24 26.02 36.54 25.55C37.84 25.08 40.59 23.60 40.59 23.08C40.59 22.56 37.84 22.61 36.54 22.45C35.24 22.28 33.97 22.17 32.80 22.10C31.64 22.04 30.52 22.03 29.54 22.07C28.56 22.11 27.66 22.20 26.91 22.35C26.17 22.50 25.54 22.70 25.09 22.96C24.64 23.22 24.32 23.54 24.21 23.91C24.11 24.29 24.17 24.73 24.46 25.22C24.76 25.72 25.24 26.28 25.99 26.90C26.73 27.52 28.55 28.68 28.95 28.95C29.35 29.22 28.59 28.65 28.41 28.51C28.24 28.37 28.07 28.24 27.90 28.11C27.74 27.98 27.58 27.86 27.43 27.74C27.28 27.62 27.13 27.51 26.99 27.40C26.85 27.30 26.72 27.20 26.60 27.10C26.47 27.00 26.35 26.91 26.25 26.82C26.14 26.73 26.04 26.65 25.95 26.57C25.86 26.49 25.77 26.47 25.70 26.35C25.64 26.22 25.58 26.01 25.54 25.84C25.49 25.67 25.46 25.49 25.44 25.31C25.42 25.13 25.41 24.95 25.42 24.77C25.42 24.59 25.44 24.41 25.47 24.23C25.50 24.05 25.54 23.88 25.59 23.70C25.64 23.53 25.70 23.36 25.78 23.20C25.85 23.03 25.93 22.87 26.03 22.72C26.12 22.57 26.29 22.44 26.35 22.30C26.40 22.15 26.35 22.00 26.38 21.86C26.41 21.72 26.45 21.58 26.52 21.45C26.58 21.32 26.66 21.19 26.75 21.06C26.84 20.93 26.95 20.80 27.07 20.68C27.19 20.55 27.32 20.42 27.46 20.29C27.60 20.16 27.75 20.04 27.91 19.90C28.07 19.77 28.24 19.63 28.41 19.49C28.59 19.35 28.86 19.12 28.95 19.05Z" fill="url(#gE)"/><path d="M28.95 28.95C28.61 28.46 27.52 26.73 26.90 25.99C26.28 25.24 25.72 24.76 25.22 24.46C24.73 24.17 24.29 24.11 23.91 24.21C23.54 24.32 23.22 24.64 22.96 25.09C22.70 25.54 22.50 26.17 22.35 26.91C22.20 27.66 22.11 28.56 22.07 29.54C22.03 30.52 22.04 31.64 22.10 32.80C22.17 33.97 21.98 35.24 22.45 36.54C22.92 37.84 24.40 40.59 24.92 40.59C25.44 40.59 25.39 37.84 25.55 36.54C25.72 35.24 25.83 33.97 25.90 32.80C25.96 31.64 25.97 30.52 25.93 29.54C25.89 28.56 25.80 27.66 25.65 26.91C25.50 26.17 25.30 25.54 25.04 25.09C24.78 24.64 24.46 24.32 24.09 24.21C23.71 24.11 23.27 24.17 22.78 24.46C22.28 24.76 21.72 25.24 21.10 25.99C20.48 26.73 19.32 28.55 19.05 28.95C18.78 29.35 19.35 28.59 19.49 28.41C19.63 28.24 19.76 28.07 19.89 27.90C20.02 27.74 20.14 27.58 20.26 27.43C20.38 27.28 20.49 27.13 20.60 26.99C20.70 26.85 20.80 26.72 20.90 26.60C21.00 26.47 21.09 26.35 21.18 26.25C21.27 26.14 21.35 26.04 21.43 25.95C21.51 25.86 21.53 25.77 21.65 25.70C21.78 25.64 21.99 25.58 22.16 25.54C22.33 25.49 22.51 25.46 22.69 25.44C22.87 25.42 23.05 25.41 23.23 25.42C23.41 25.42 23.59 25.44 23.77 25.47C23.95 25.50 24.12 25.54 24.30 25.59C24.47 25.64 24.64 25.70 24.80 25.78C24.97 25.85 25.13 25.93 25.28 26.03C25.43 26.12 25.56 26.29 25.70 26.35C25.85 26.40 26.00 26.35 26.14 26.38C26.28 26.41 26.42 26.45 26.55 26.52C26.68 26.58 26.81 26.66 26.94 26.75C27.07 26.84 27.20 26.95 27.32 27.07C27.45 27.19 27.58 27.32 27.71 27.46C27.84 27.60 27.96 27.75 28.10 27.91C28.23 28.07 28.37 28.24 28.51 28.41C28.65 28.59 28.88 28.86 28.95 28.95Z" fill="url(#gS)"/><path d="M19.05 28.95C19.54 28.61 21.27 27.52 22.01 26.90C22.76 26.28 23.24 25.72 23.54 25.22C23.83 24.73 23.89 24.29 23.79 23.91C23.68 23.54 23.36 23.22 22.91 22.96C22.46 22.70 21.83 22.50 21.09 22.35C20.34 22.20 19.44 22.11 18.46 22.07C17.48 22.03 16.36 22.04 15.20 22.10C14.03 22.17 12.76 21.98 11.46 22.45C10.16 22.92 7.41 24.40 7.41 24.92C7.41 25.44 10.16 25.39 11.46 25.55C12.76 25.72 14.03 25.83 15.20 25.90C16.36 25.96 17.48 25.97 18.46 25.93C19.44 25.89 20.34 25.80 21.09 25.65C21.83 25.50 22.46 25.30 22.91 25.04C23.36 24.78 23.68 24.46 23.79 24.09C23.89 23.71 23.83 23.27 23.54 22.78C23.24 22.28 22.76 21.72 22.01 21.10C21.27 20.48 19.45 19.32 19.05 19.05C18.65 18.78 19.41 19.35 19.59 19.49C19.76 19.63 19.93 19.76 20.10 19.89C20.26 20.02 20.42 20.14 20.57 20.26C20.72 20.38 20.87 20.49 21.01 20.60C21.15 20.70 21.28 20.80 21.40 20.90C21.53 21.00 21.65 21.09 21.75 21.18C21.86 21.27 21.96 21.35 22.05 21.43C22.14 21.51 22.23 21.53 22.30 21.65C22.36 21.78 22.42 21.99 22.46 22.16C22.51 22.33 22.54 22.51 22.56 22.69C22.58 22.87 22.59 23.05 22.58 23.23C22.58 23.41 22.56 23.59 22.53 23.77C22.50 23.95 22.46 24.12 22.41 24.30C22.36 24.47 22.30 24.64 22.22 24.80C22.15 24.97 22.07 25.13 21.97 25.28C21.88 25.43 21.71 25.56 21.65 25.70C21.60 25.85 21.65 26.00 21.62 26.14C21.59 26.28 21.55 26.42 21.48 26.55C21.42 26.68 21.34 26.81 21.25 26.94C21.16 27.07 21.05 27.20 20.93 27.32C20.81 27.45 20.68 27.58 20.54 27.71C20.40 27.84 20.25 27.96 20.09 28.10C19.93 28.23 19.76 28.37 19.59 28.51C19.41 28.65 19.14 28.88 19.05 28.95Z" fill="url(#gW)"/></svg>