<svg xmlns="http://www.w3.org/2000/svg" viewBox="0 0 48 48"><defs><linearGradient id="gM" x1="24" y1="1.8" x2="24" y2="46.2" gradientUnits="userSpaceOnUse"><stop offset="0" stop-color="#8FB4FF"/><stop offset=".34" stop-color="#2E6BFF"/><stop offset=".58" stop-color="#7A5CFF"/><stop offset=".80" stop-color="#FF4D6D"/><stop offset="1" stop-color="#FF6A2D"/></linearGradient></defs><path d="M23.27 5.19C23.22 5.76 23.00 7.49 22.95 8.61C22.91 9.73 22.94 10.86 23.02 11.90C23.09 12.95 23.23 13.98 23.41 14.90C23.60 15.82 23.84 16.69 24.12 17.42C24.39 18.16 24.72 18.82 25.08 19.31C25.44 19.81 25.84 20.20 26.26 20.41C26.69 20.61 27.16 20.68 27.64 20.53C28.12 20.38 26.63 19.07 29.16 19.52C31.69 19.98 41.11 22.70 42.81 23.27C44.52 23.84 40.51 23.00 39.39 22.95C38.27 22.91 37.14 22.94 36.10 23.02C35.05 23.09 34.02 23.23 33.10 23.41C32.18 23.60 31.31 23.84 30.58 24.12C29.84 24.39 29.18 24.72 28.69 25.08C28.19 25.44 27.80 25.84 27.59 26.26C27.39 26.69 27.32 27.16 27.47 27.64C27.62 28.12 29.17 26.61 28.48 29.16C27.78 31.71 24.22 41.16 23.31 42.93C22.41 44.71 23.09 40.82 23.04 39.82C23.00 38.82 23.02 37.85 23.04 36.94C23.05 36.04 23.11 35.18 23.14 34.39C23.16 33.61 23.21 32.89 23.19 32.26C23.17 31.63 23.15 31.07 23.03 30.62C22.92 30.17 22.77 29.81 22.51 29.57C22.25 29.33 21.93 29.19 21.48 29.19C21.02 29.19 22.47 30.31 19.76 29.57C17.05 28.82 7.05 25.48 5.19 24.73C3.33 23.98 7.49 25.00 8.61 25.05C9.73 25.09 10.86 25.06 11.90 24.98C12.95 24.91 13.98 24.77 14.90 24.59C15.82 24.40 16.69 24.16 17.42 23.88C18.16 23.61 18.82 23.28 19.31 22.92C19.81 22.56 20.20 22.16 20.41 21.74C20.61 21.31 20.68 20.84 20.53 20.36C20.38 19.88 19.69 19.10 19.52 18.84Z" fill="url(#gM)"/></svg>