<svg xmlns="http://www.w3.org/2000/svg" viewBox="0 0 48 48"><defs><linearGradient id="gN" x1="24" y1="3.2" x2="24" y2="24" gradientUnits="userSpaceOnUse"><stop offset="0" stop-color="#8FB4FF"/><stop offset="1" stop-color="#2E6BFF"/></linearGradient><linearGradient id="gE" x1="44.8" y1="24" x2="24" y2="24" gradientUnits="userSpaceOnUse"><stop offset="0" stop-color="#2E6BFF"/><stop offset="1" stop-color="#7A5CFF"/></linearGradient><linearGradient id="gW" x1="3.2" y1="24" x2="24" y2="24" gradientUnits="userSpaceOnUse"><stop offset="0" stop-color="#2E6BFF"/><stop offset="1" stop-color="#7A5CFF"/></linearGradient><linearGradient id="gS" x1="24" y1="44.8" x2="24" y2="24" gradientUnits="userSpaceOnUse"><stop offset="0" stop-color="#FF6A2D"/><stop offset="0.42" stop-color="#FF4D6D"/><stop offset="1" stop-color="#7A5CFF"/></linearGradient></defs><path d="M18.20 18.20C18.52 18.65 19.53 20.22 20.12 20.89C20.71 21.55 21.26 21.96 21.75 22.19C22.25 22.42 22.70 22.42 23.09 22.28C23.49 22.13 23.84 21.78 24.14 21.31C24.44 20.83 24.69 20.18 24.89 19.44C25.09 18.70 25.23 17.81 25.33 16.85C25.43 15.89 25.47 14.80 25.47 13.68C25.46 12.56 25.67 11.34 25.30 10.11C24.92 8.88 23.62 6.30 23.19 6.30C22.76 6.30 22.81 8.88 22.70 10.11C22.59 11.34 22.54 12.56 22.53 13.68C22.53 14.80 22.57 15.89 22.67 16.85C22.77 17.81 22.91 18.70 23.11 19.44C23.31 20.18 23.56 20.83 23.86 21.31C24.16 21.78 24.51 22.13 24.91 22.28C25.30 22.42 25.75 22.42 26.25 22.19C26.74 21.96 27.29 21.55 27.88 20.89C28.47 20.22 29.60 18.51 29.80 18.20C30.00 17.89 29.30 18.76 29.08 19.02C28.86 19.27 28.66 19.51 28.47 19.73C28.29 19.96 28.12 20.16 27.97 20.35C27.82 20.53 27.69 20.71 27.57 20.86C27.45 21.01 27.35 21.15 27.26 21.27C27.17 21.40 27.10 21.50 27.04 21.59C26.98 21.68 26.93 21.76 26.90 21.81C26.86 21.87 26.94 21.89 26.83 21.94C26.72 21.99 26.45 22.07 26.24 22.11C26.04 22.16 25.83 22.19 25.61 22.20C25.40 22.22 25.18 22.22 24.96 22.21C24.74 22.20 24.51 22.18 24.29 22.15C24.07 22.11 23.85 22.06 23.64 22.01C23.43 21.95 23.22 21.88 23.02 21.79C22.82 21.71 22.63 21.62 22.45 21.51C22.27 21.41 22.08 21.20 21.94 21.17C21.80 21.13 21.73 21.28 21.62 21.30C21.51 21.31 21.40 21.30 21.29 21.26C21.17 21.23 21.05 21.17 20.93 21.08C20.80 21.00 20.67 20.89 20.53 20.76C20.38 20.63 20.23 20.48 20.07 20.31C19.90 20.13 19.73 19.94 19.54 19.72C19.35 19.51 19.14 19.27 18.92 19.02C18.70 18.76 18.32 18.34 18.20 18.20Z" fill="url(#gN)"/><path d="M29.80 18.20C29.35 18.52 27.78 19.53 27.11 20.12C26.45 20.71 26.04 21.26 25.81 21.75C25.58 22.25 25.58 22.70 25.72 23.09C25.87 23.49 26.22 23.84 26.69 24.14C27.17 24.44 27.82 24.69 28.56 24.89C29.30 25.09 30.19 25.23 31.15 25.33C32.11 25.43 33.20 25.47 34.32 25.47C35.44 25.46 36.66 25.67 37.89 25.30C39.12 24.92 41.70 23.62 41.70 23.19C41.70 22.76 39.12 22.81 37.89 22.70C36.66 22.59 35.44 22.54 34.32 22.53C33.20 22.53 32.11 22.57 31.15 22.67C30.19 22.77 29.30 22.91 28.56 23.11C27.82 23.31 27.17 23.56 26.69 23.86C26.22 24.16 25.87 24.51 25.72 24.91C25.58 25.30 25.58 25.75 25.81 26.25C26.04 26.74 26.45 27.29 27.11 27.88C27.78 28.47 29.49 29.60 29.80 29.80C30.11 30.00 29.24 29.30 28.98 29.08C28.73 28.86 28.49 28.66 28.27 28.47C28.04 28.29 27.84 28.12 27.65 27.97C27.47 27.82 27.29 27.69 27.14 27.57C26.99 27.45 26.85 27.35 26.73 27.26C26.60 27.17 26.50 27.10 26.41 27.04C26.32 26.98 26.24 26.93 26.19 26.90C26.13 26.86 26.11 26.94 26.06 26.83C26.01 26.72 25.93 26.45 25.89 26.24C25.84 26.04 25.81 25.83 25.80 25.61C25.78 25.40 25.78 25.18 25.79 24.96C25.80 24.74 25.82 24.51 25.85 24.29C25.89 24.07 25.94 23.85 25.99 23.64C26.05 23.43 26.12 23.22 26.21 23.02C26.29 22.82 26.38 22.63 26.49 22.45C26.59 22.27 26.80 22.08 26.83 21.94C26.87 21.80 26.72 21.73 26.70 21.62C26.69 21.51 26.70 21.40 26.74 21.29C26.77 21.17 26.83 21.05 26.92 20.93C27.00 20.80 27.11 20.67 27.24 20.53C27.37 20.38 27.52 20.23 27.69 20.07C27.87 19.90 28.06 19.73 28.28 19.54C28.49 19.35 28.73 19.14 28.98 18.92C29.24 18.70 29.66 18.32 29.80 18.20Z" fill="url(#gE)"/><path d="M29.80 29.80C29.48 29.35 28.47 27.78 27.88 27.11C27.29 26.45 26.74 26.04 26.25 25.81C25.75 25.58 25.30 25.58 24.91 25.72C24.51 25.87 24.16 26.22 23.86 26.69C23.56 27.17 23.31 27.82 23.11 28.56C22.91 29.30 22.77 30.19 22.67 31.15C22.57 32.11 22.53 33.20 22.53 34.32C22.54 35.44 22.33 36.66 22.70 37.89C23.08 39.12 24.38 41.70 24.81 41.70C25.24 41.70 25.19 39.12 25.30 37.89C25.41 36.66 25.46 35.44 25.47 34.32C25.47 33.20 25.43 32.11 25.33 31.15C25.23 30.19 25.09 29.30 24.89 28.56C24.69 27.82 24.44 27.17 24.14 26.69C23.84 26.22 23.49 25.87 23.09 25.72C22.70 25.58 22.25 25.58 21.75 25.81C21.26 26.04 20.71 26.45 20.12 27.11C19.53 27.78 18.40 29.49 18.20 29.80C18.00 30.11 18.70 29.24 18.92 28.98C19.14 28.73 19.34 28.49 19.53 28.27C19.71 28.04 19.88 27.84 20.03 27.65C20.18 27.47 20.31 27.29 20.43 27.14C20.55 26.99 20.65 26.85 20.74 26.73C20.83 26.60 20.90 26.50 20.96 26.41C21.02 26.32 21.07 26.24 21.10 26.19C21.14 26.13 21.06 26.11 21.17 26.06C21.28 26.01 21.55 25.93 21.76 25.89C21.96 25.84 22.17 25.81 22.39 25.80C22.60 25.78 22.82 25.78 23.04 25.79C23.26 25.80 23.49 25.82 23.71 25.85C23.93 25.89 24.15 25.94 24.36 25.99C24.57 26.05 24.78 26.12 24.98 26.21C25.18 26.29 25.37 26.38 25.55 26.49C25.73 26.59 25.92 26.80 26.06 26.83C26.20 26.87 26.27 26.72 26.38 26.70C26.49 26.69 26.60 26.70 26.71 26.74C26.83 26.77 26.95 26.83 27.07 26.92C27.20 27.00 27.33 27.11 27.47 27.24C27.62 27.37 27.77 27.52 27.93 27.69C28.10 27.87 28.27 28.06 28.46 28.28C28.65 28.49 28.86 28.73 29.08 28.98C29.30 29.24 29.68 29.66 29.80 29.80Z" fill="url(#gS)"/><path d="M18.20 29.80C18.65 29.48 20.22 28.47 20.89 27.88C21.55 27.29 21.96 26.74 22.19 26.25C22.42 25.75 22.42 25.30 22.28 24.91C22.13 24.51 21.78 24.16 21.31 23.86C20.83 23.56 20.18 23.31 19.44 23.11C18.70 22.91 17.81 22.77 16.85 22.67C15.89 22.57 14.80 22.53 13.68 22.53C12.56 22.54 11.34 22.33 10.11 22.70C8.88 23.08 6.30 24.38 6.30 24.81C6.30 25.24 8.88 25.19 10.11 25.30C11.34 25.41 12.56 25.46 13.68 25.47C14.80 25.47 15.89 25.43 16.85 25.33C17.81 25.23 18.70 25.09 19.44 24.89C20.18 24.69 20.83 24.44 21.31 24.14C21.78 23.84 22.13 23.49 22.28 23.09C22.42 22.70 22.42 22.25 22.19 21.75C21.96 21.26 21.55 20.71 20.89 20.12C20.22 19.53 18.51 18.40 18.20 18.20C17.89 18.00 18.76 18.70 19.02 18.92C19.27 19.14 19.51 19.34 19.73 19.53C19.96 19.71 20.16 19.88 20.35 20.03C20.53 20.18 20.71 20.31 20.86 20.43C21.01 20.55 21.15 20.65 21.27 20.74C21.40 20.83 21.50 20.90 21.59 20.96C21.68 21.02 21.76 21.07 21.81 21.10C21.87 21.14 21.89 21.06 21.94 21.17C21.99 21.28 22.07 21.55 22.11 21.76C22.16 21.96 22.19 22.17 22.20 22.39C22.22 22.60 22.22 22.82 22.21 23.04C22.20 23.26 22.18 23.49 22.15 23.71C22.11 23.93 22.06 24.15 22.01 24.36C21.95 24.57 21.88 24.78 21.79 24.98C21.71 25.18 21.62 25.37 21.51 25.55C21.41 25.73 21.20 25.92 21.17 26.06C21.13 26.20 21.28 26.27 21.30 26.38C21.31 26.49 21.30 26.60 21.26 26.71C21.23 26.83 21.17 26.95 21.08 27.07C21.00 27.20 20.89 27.33 20.76 27.47C20.63 27.62 20.48 27.77 20.31 27.93C20.13 28.10 19.94 28.27 19.72 28.46C19.51 28.65 19.27 28.86 19.02 29.08C18.76 29.30 18.34 29.68 18.20 29.80Z" fill="url(#gW)"/></svg>