<svg xmlns="http://www.w3.org/2000/svg" viewBox="0 0 306.78 306.78" role="img" aria-label="ponytail">
<title>ponytail</title>
<g transform="translate(28.000 129.389) scale(1.0)">
<defs>
  <linearGradient id="gm" x1="24" y1="3.2" x2="24" y2="44.8" gradientUnits="userSpaceOnUse">
    <stop offset="0" stop-color="#8FB4FF"/>
    <stop offset="0.34" stop-color="#2E6BFF"/>
    <stop offset="0.58" stop-color="#7A5CFF"/>
    <stop offset="0.8" stop-color="#FF4D6D"/>
    <stop offset="1" stop-color="#FF6A2D"/>
  </linearGradient>
  <clipPath id="cm"><path d="M24 3.2C24 18.87 29.13 24 44.8 24C29.13 24 24 29.13 24 44.8C24 29.13 18.87 24 3.2 24C18.87 24 24 18.87 24 3.2ZM24 19.4C24 21.95 26.05 24 28.6 24C26.05 24 24 26.05 24 28.6C24 26.05 21.95 24 19.4 24C21.95 24 24 21.95 24 19.4Z" fill-rule="evenodd"/></clipPath>
  <linearGradient id="shm" x1="14" y1="4" x2="34" y2="40" gradientUnits="userSpaceOnUse">
    <stop offset="0" stop-color="#fff" stop-opacity=".55"/>
    <stop offset=".38" stop-color="#fff" stop-opacity=".16"/>
    <stop offset=".58" stop-color="#fff" stop-opacity="0"/>
  </linearGradient>
  <linearGradient id="sdm" x1="36" y1="40" x2="20" y2="14" gradientUnits="userSpaceOnUse">
    <stop offset="0" stop-color="#050B26" stop-opacity=".30"/>
    <stop offset=".5" stop-color="#050B26" stop-opacity="0"/>
  </linearGradient>
</defs>
<path d="M24 3.2C24 18.87 29.13 24 44.8 24C29.13 24 24 29.13 24 44.8C24 29.13 18.87 24 3.2 24C18.87 24 24 18.87 24 3.2ZM24 19.4C24 21.95 26.05 24 28.6 24C26.05 24 24 26.05 24 28.6C24 26.05 21.95 24 19.4 24C21.95 24 24 21.95 24 19.4Z" fill="url(#gm)" fill-rule="evenodd"/>
<g clip-path="url(#cm)">
  <rect width="48" height="48" fill="url(#shm)"/>
  <rect width="48" height="48" fill="url(#sdm)"/>
</g>
</g>
<g transform="translate(91.000 165.889) scale(0.02314815)">
<path d="M670.0 30Q509.0 30 401.0 -45.0Q293.0 -120 238.5 -249.0Q184.0 -378 184.0 -540Q184.0 -702 238.0 -831.0Q292.0 -960 397.0 -1035.0Q502.0 -1110 656.0 -1110Q811.0 -1110 926.0 -1036.0Q1041.0 -962 1104.5 -833.5Q1168.0 -705 1168.0 -540Q1168.0 -378 1105.5 -249.0Q1043.0 -120 931.0 -45.0Q819.0 30 670.0 30ZM138.0 480V-1080H378.0V-340H412.0V480ZM626.0 -212Q714.0 -212 770.0 -256.0Q826.0 -300 853.0 -374.5Q880.0 -449 880.0 -540Q880.0 -630 852.0 -704.5Q824.0 -779 765.5 -823.5Q707.0 -868 616.0 -868Q531.0 -868 478.5 -827.0Q426.0 -786 402.0 -712.0Q378.0 -638 378.0 -540Q378.0 -442 402.0 -368.0Q426.0 -294 480.5 -253.0Q535.0 -212 626.0 -212Z" fill="#0A1030"/>
<path d="M1784.0 30Q1621.0 30 1498.0 -43.0Q1375.0 -116 1306.5 -244.5Q1238.0 -373 1238.0 -540Q1238.0 -709 1308.0 -837.5Q1378.0 -966 1501.0 -1038.0Q1624.0 -1110 1784.0 -1110Q1947.0 -1110 2070.5 -1037.0Q2194.0 -964 2263.0 -835.5Q2332.0 -707 2332.0 -540Q2332.0 -372 2262.5 -243.5Q2193.0 -115 2069.5 -42.5Q1946.0 30 1784.0 30ZM1784.0 -224Q1915.0 -224 1979.5 -312.5Q2044.0 -401 2044.0 -540Q2044.0 -684 1978.5 -770.0Q1913.0 -856 1784.0 -856Q1695.0 -856 1638.0 -816.0Q1581.0 -776 1553.5 -705.0Q1526.0 -634 1526.0 -540Q1526.0 -395 1591.5 -309.5Q1657.0 -224 1784.0 -224Z" fill="#0A1030"/>
<path d="M3198.0 0V-510Q3198.0 -547 3194.0 -604.5Q3190.0 -662 3169.0 -720.0Q3148.0 -778 3100.5 -817.0Q3053.0 -856 2966.0 -856Q2931.0 -856 2891.0 -845.0Q2851.0 -834 2816.0 -802.5Q2781.0 -771 2758.5 -710.0Q2736.0 -649 2736.0 -548L2580.0 -622Q2580.0 -750 2632.0 -862.0Q2684.0 -974 2788.5 -1043.0Q2893.0 -1112 3052.0 -1112Q3179.0 -1112 3259.0 -1069.0Q3339.0 -1026 3383.5 -960.0Q3428.0 -894 3447.0 -822.5Q3466.0 -751 3470.0 -692.0Q3474.0 -633 3474.0 -606V0ZM2460.0 0V-1080H2702.0V-722H2736.0V0Z" fill="#0A1030"/>
<path d="M3742.0 480 3950.0 -92 3954.0 76 3484.0 -1080H3766.0L4082.0 -262H4018.0L4332.0 -1080H4604.0L3994.0 480Z" fill="#0A1030"/>
<path d="M5382.0 0Q5270.0 21 5162.5 18.5Q5055.0 16 4970.5 -19.5Q4886.0 -55 4842.0 -134Q4802.0 -208 4800.0 -284.5Q4798.0 -361 4798.0 -458V-1380H5070.0V-474Q5070.0 -411 5071.5 -360.5Q5073.0 -310 5092.0 -280Q5128.0 -223 5207.0 -218.0Q5286.0 -213 5382.0 -226ZM4614.0 -870V-1080H5382.0V-870Z" fill="#0A1030"/>
<path d="M5832.0 30Q5716.0 30 5635.5 -14.5Q5555.0 -59 5513.5 -133.5Q5472.0 -208 5472.0 -298Q5472.0 -373 5495.0 -435.0Q5518.0 -497 5569.5 -544.5Q5621.0 -592 5708.0 -624Q5768.0 -646 5851.0 -663.0Q5934.0 -680 6039.0 -695.5Q6144.0 -711 6270.0 -730L6172.0 -676Q6172.0 -772 6126.0 -817.0Q6080.0 -862 5972.0 -862Q5912.0 -862 5847.0 -833.0Q5782.0 -804 5756.0 -730L5510.0 -808Q5551.0 -942 5664.0 -1026.0Q5777.0 -1110 5972.0 -1110Q6115.0 -1110 6226.0 -1066.0Q6337.0 -1022 6394.0 -914Q6426.0 -854 6432.0 -794.0Q6438.0 -734 6438.0 -660V0H6200.0V-222L6234.0 -176Q6155.0 -67 6063.5 -18.5Q5972.0 30 5832.0 30ZM5890.0 -184Q5965.0 -184 6016.5 -210.5Q6068.0 -237 6098.5 -271.0Q6129.0 -305 6140.0 -328Q6161.0 -372 6164.5 -430.5Q6168.0 -489 6168.0 -528L6248.0 -508Q6127.0 -488 6052.0 -474.5Q5977.0 -461 5931.0 -450.0Q5885.0 -439 5850.0 -426Q5810.0 -410 5785.5 -391.5Q5761.0 -373 5749.5 -351.0Q5738.0 -329 5738.0 -302Q5738.0 -265 5756.5 -238.5Q5775.0 -212 5809.0 -198.0Q5843.0 -184 5890.0 -184Z" fill="#0A1030"/>
<path d="M6628.0 -1230V-1470H6900.0V-1230ZM6628.0 0V-1080H6900.0V0Z" fill="#0A1030"/>
<path d="M7130.0 0V-1470H7402.0V0Z" fill="#0A1030"/>
<path d="M7656.0 0V-272H7928.0V0Z" fill="#FF6A2D"/>
</g>
</svg>
