<svg xmlns="http://www.w3.org/2000/svg" viewBox="0 0 48 48"><rect width="48" height="48" fill="#050B26"/><g transform="translate(9.6 9.6) scale(0.6)"><defs><linearGradient id="gAmaster" x1="24" y1="3.20" x2="24" y2="44.80" gradientUnits="userSpaceOnUse"><stop offset="0.0" stop-color="#8FB4FF"/><stop offset="0.34" stop-color="#2E6BFF"/><stop offset="0.58" stop-color="#7A5CFF"/><stop offset="0.8" stop-color="#FF4D6D"/><stop offset="1.0" stop-color="#FF6A2D"/></linearGradient><clipPath id="clipAmaster"><path d="M24.00 3.20C24.00 18.87 29.13 24.00 44.80 24.00C29.13 24.00 24.00 29.13 24.00 44.80C24.00 29.13 18.87 24.00 3.20 24.00C18.87 24.00 24.00 18.87 24.00 3.20ZM24.00 19.40C24.00 21.95 26.05 24.00 28.60 24.00C26.05 24.00 24.00 26.05 24.00 28.60C24.00 26.05 21.95 24.00 19.40 24.00C21.95 24.00 24.00 21.95 24.00 19.40Z" clip-rule="evenodd"/></clipPath><linearGradient id="sheenmaster" x1="14" y1="4" x2="34" y2="40" gradientUnits="userSpaceOnUse"><stop offset="0" stop-color="#fff" stop-opacity=".55"/><stop offset=".38" stop-color="#fff" stop-opacity=".16"/><stop offset=".58" stop-color="#fff" stop-opacity="0"/></linearGradient><linearGradient id="shademaster" x1="36" y1="40" x2="20" y2="14" gradientUnits="userSpaceOnUse"><stop offset="0" stop-color="#050B26" stop-opacity=".30"/><stop offset=".5" stop-color="#050B26" stop-opacity="0"/></linearGradient></defs><path d="M24.00 3.20C24.00 18.87 29.13 24.00 44.80 24.00C29.13 24.00 24.00 29.13 24.00 44.80C24.00 29.13 18.87 24.00 3.20 24.00C18.87 24.00 24.00 18.87 24.00 3.20ZM24.00 19.40C24.00 21.95 26.05 24.00 28.60 24.00C26.05 24.00 24.00 26.05 24.00 28.60C24.00 26.05 21.95 24.00 19.40 24.00C21.95 24.00 24.00 21.95 24.00 19.40Z" fill="url(#gAmaster)" fill-rule="evenodd"/><g clip-path="url(#clipAmaster)"><rect width="48" height="48" fill="url(#sheenmaster)"/><rect width="48" height="48" fill="url(#shademaster)"/><path d="M24.00 3.20C24.00 18.87 29.13 24.00 44.80 24.00C29.13 24.00 24.00 29.13 24.00 44.80C24.00 29.13 18.87 24.00 3.20 24.00C18.87 24.00 24.00 18.87 24.00 3.20Z" fill="none" stroke="#fff" stroke-opacity=".45" stroke-width=".55"/></g><g clip-path="url(#clipAmaster)"><line x1="25.13" y1="25.13" x2="28.67" y2="28.67" stroke="#050B26" stroke-opacity=".16" stroke-width=".5" stroke-linecap="round"/><line x1="22.87" y1="25.13" x2="19.33" y2="28.67" stroke="#050B26" stroke-opacity=".16" stroke-width=".5" stroke-linecap="round"/><line x1="22.87" y1="22.87" x2="19.33" y2="19.33" stroke="#050B26" stroke-opacity=".16" stroke-width=".5" stroke-linecap="round"/><line x1="25.13" y1="22.87" x2="28.67" y2="19.33" stroke="#050B26" stroke-opacity=".16" stroke-width=".5" stroke-linecap="round"/></g></g></svg>