<svg xmlns="http://www.w3.org/2000/svg" viewBox="0 0 202.77 48"><defs><linearGradient id="gAmaster" x1="24" y1="3.20" x2="24" y2="44.80" gradientUnits="userSpaceOnUse"><stop offset="0.0" stop-color="#8FB4FF"/><stop offset="0.3" stop-color="#2E6BFF"/><stop offset="0.6" stop-color="#7A5CFF"/><stop offset="0.8" stop-color="#FF4D6D"/><stop offset="1.0" stop-color="#FF6A2D"/></linearGradient><clipPath id="clipAmaster"><path d="M24.00 3.20Q22.65 25.35 44.80 24.00Q22.65 22.65 24.00 44.80Q25.35 22.65 3.20 24.00Q25.35 25.35 24.00 3.20ZM24.00 19.40Q24.39 23.61 28.60 24.00Q24.39 24.39 24.00 28.60Q23.61 24.39 19.40 24.00Q23.61 23.61 24.00 19.40Z" clip-rule="evenodd"/></clipPath><linearGradient id="sheenmaster" x1="14" y1="4" x2="34" y2="40" gradientUnits="userSpaceOnUse"><stop offset="0" stop-color="#fff" stop-opacity=".55"/><stop offset=".38" stop-color="#fff" stop-opacity=".16"/><stop offset=".58" stop-color="#fff" stop-opacity="0"/></linearGradient><linearGradient id="shademaster" x1="36" y1="40" x2="20" y2="14" gradientUnits="userSpaceOnUse"><stop offset="0" stop-color="#050B26" stop-opacity=".30"/><stop offset=".5" stop-color="#050B26" stop-opacity="0"/></linearGradient></defs><path d="M24.00 3.20Q22.65 25.35 44.80 24.00Q22.65 22.65 24.00 44.80Q25.35 22.65 3.20 24.00Q25.35 25.35 24.00 3.20ZM24.00 19.40Q24.39 23.61 28.60 24.00Q24.39 24.39 24.00 28.60Q23.61 24.39 19.40 24.00Q23.61 23.61 24.00 19.40Z" fill="url(#gAmaster)" fill-rule="evenodd"/><g clip-path="url(#clipAmaster)"><rect width="48" height="48" fill="url(#sheenmaster)"/><rect width="48" height="48" fill="url(#shademaster)"/><path d="M24.00 3.20Q22.65 25.35 44.80 24.00Q22.65 22.65 24.00 44.80Q25.35 22.65 3.20 24.00Q25.35 25.35 24.00 3.20Z" fill="none" stroke="#fff" stroke-opacity=".45" stroke-width=".55"/></g><g clip-path="url(#clipAmaster)"><line x1="25.13" y1="25.13" x2="28.67" y2="28.67" stroke="#050B26" stroke-opacity=".16" stroke-width=".5" stroke-linecap="round"/><line x1="22.87" y1="25.13" x2="19.33" y2="28.67" stroke="#050B26" stroke-opacity=".16" stroke-width=".5" stroke-linecap="round"/><line x1="22.87" y1="22.87" x2="19.33" y2="19.33" stroke="#050B26" stroke-opacity=".16" stroke-width=".5" stroke-linecap="round"/><line x1="25.13" y1="22.87" x2="28.67" y2="19.33" stroke="#050B26" stroke-opacity=".16" stroke-width=".5" stroke-linecap="round"/></g><g transform="translate(63.000 36.500) scale(0.023148)"><path d="M562.0 30Q358.0 30 232.5 -62.5Q107.0 -155 80.0 -324L358.0 -366Q375.0 -290 433.5 -247.0Q492.0 -204 582.0 -204Q656.0 -204 696.0 -232.5Q736.0 -261 736.0 -312Q736.0 -344 720.0 -363.5Q704.0 -383 648.5 -402.0Q593.0 -421 476.0 -452Q344.0 -486 265.0 -528.0Q186.0 -570 151.0 -628.5Q116.0 -687 116.0 -770Q116.0 -874 169.0 -950.5Q222.0 -1027 318.5 -1068.5Q415.0 -1110 546.0 -1110Q673.0 -1110 771.0 -1071.0Q869.0 -1032 929.5 -960.0Q990.0 -888 1004.0 -790L726.0 -740Q719.0 -800 674.0 -835.0Q629.0 -870 552.0 -876Q477.0 -881 431.5 -856.0Q386.0 -831 386.0 -784Q386.0 -756 405.5 -737.0Q425.0 -718 486.5 -698.0Q548.0 -678 674.0 -646Q797.0 -614 871.5 -571.5Q946.0 -529 980.0 -469.5Q1014.0 -410 1014.0 -326Q1014.0 -160 894.0 -65.0Q774.0 30 562.0 30Z" fill="#FFFFFF"/><path d="M1164.0 -1230V-1470H1436.0V-1230ZM1164.0 0V-1080H1436.0V0Z" fill="#FFFFFF"/><path d="M1938.0 0 1546.0 -1080H1818.0L2074.0 -332L2330.0 -1080H2602.0L2210.0 0Z" fill="#FFFFFF"/><path d="M2692.0 0V-1080H2932.0V-816L2906.0 -850Q2927.0 -906 2962.0 -952.0Q2997.0 -998 3048.0 -1028Q3087.0 -1052 3133.0 -1065.5Q3179.0 -1079 3228.0 -1082.5Q3277.0 -1086 3326.0 -1080V-826Q3281.0 -840 3221.5 -835.5Q3162.0 -831 3114.0 -808Q3066.0 -786 3033.0 -749.5Q3000.0 -713 2983.0 -663.5Q2966.0 -614 2966.0 -552V0Z" fill="#FFFFFF"/><path d="M3882.0 30Q3714.0 30 3594.0 -45.0Q3474.0 -120 3410.0 -249.0Q3346.0 -378 3346.0 -540Q3346.0 -704 3412.5 -833.0Q3479.0 -962 3600.0 -1036.0Q3721.0 -1110 3886.0 -1110Q4077.0 -1110 4206.5 -1013.5Q4336.0 -917 4372.0 -750L4100.0 -678Q4076.0 -762 4016.5 -809.0Q3957.0 -856 3882.0 -856Q3796.0 -856 3741.0 -814.5Q3686.0 -773 3660.0 -701.5Q3634.0 -630 3634.0 -540Q3634.0 -399 3696.5 -311.5Q3759.0 -224 3882.0 -224Q3974.0 -224 4022.0 -266.0Q4070.0 -308 4094.0 -386L4372.0 -328Q4326.0 -156 4198.0 -63.0Q4070.0 30 3882.0 30Z" fill="#FFFFFF"/><path d="M4954.0 30Q4788.0 30 4661.5 -41.5Q4535.0 -113 4463.5 -238.5Q4392.0 -364 4392.0 -526Q4392.0 -703 4462.0 -834.0Q4532.0 -965 4655.0 -1037.5Q4778.0 -1110 4938.0 -1110Q5108.0 -1110 5227.0 -1030.0Q5346.0 -950 5403.0 -805.0Q5460.0 -660 5443.0 -464H5174.0V-564Q5174.0 -729 5121.5 -801.5Q5069.0 -874 4950.0 -874Q4811.0 -874 4745.5 -789.5Q4680.0 -705 4680.0 -540Q4680.0 -389 4745.5 -306.5Q4811.0 -224 4938.0 -224Q5018.0 -224 5075.0 -259.0Q5132.0 -294 5162.0 -360L5434.0 -282Q5373.0 -134 5241.5 -52.0Q5110.0 30 4954.0 30ZM4596.0 -464V-666H5312.0V-464Z" fill="#FFFFFF"/><path d="M5582.0 0V-272H5854.0V0Z" fill="#FF6A2D"/></g></svg>