<svg xmlns="http://www.w3.org/2000/svg" viewBox="0 0 48 48"><path d="M25.40 3.20C25.77 3.59 26.97 4.77 27.59 5.56C28.21 6.35 28.76 7.14 29.12 7.93C29.48 8.71 29.70 9.50 29.77 10.29C29.84 11.07 29.75 11.86 29.55 12.65C29.34 13.44 28.98 14.22 28.55 15.01C28.12 15.80 27.54 16.59 26.97 17.38C26.39 18.16 25.69 18.95 25.11 19.74C24.53 20.53 23.77 21.71 23.50 22.10C23.23 22.49 23.40 22.49 23.50 22.10C23.60 21.71 23.94 20.53 24.07 19.74C24.21 18.95 24.26 18.16 24.31 17.38C24.36 16.59 24.37 15.80 24.39 15.01C24.40 14.22 24.39 13.44 24.39 12.65C24.39 11.86 24.38 11.07 24.40 10.29C24.42 9.50 24.45 8.71 24.52 7.93C24.59 7.14 24.70 6.35 24.85 5.56C24.99 4.77 25.31 3.59 25.40 3.20Z" fill="#0A1030"/><path d="M44.80 25.40C44.41 25.77 43.23 26.97 42.44 27.59C41.65 28.21 40.86 28.76 40.08 29.12C39.29 29.48 38.50 29.70 37.71 29.77C36.93 29.84 36.14 29.75 35.35 29.55C34.56 29.34 33.77 28.98 32.99 28.55C32.20 28.12 31.41 27.54 30.62 26.97C29.84 26.39 29.05 25.69 28.26 25.11C27.47 24.53 26.29 23.77 25.90 23.50C25.51 23.23 25.51 23.40 25.90 23.50C26.29 23.60 27.47 23.94 28.26 24.07C29.05 24.21 29.84 24.26 30.62 24.31C31.41 24.36 32.20 24.37 32.99 24.39C33.77 24.40 34.56 24.39 35.35 24.39C36.14 24.39 36.93 24.38 37.71 24.40C38.50 24.42 39.29 24.45 40.08 24.52C40.86 24.59 41.65 24.70 42.44 24.85C43.23 24.99 44.41 25.31 44.80 25.40Z" fill="#0A1030"/><path d="M22.60 44.80C22.23 44.41 21.03 43.23 20.41 42.44C19.79 41.65 19.24 40.86 18.88 40.08C18.52 39.29 18.30 38.50 18.23 37.71C18.16 36.93 18.25 36.14 18.45 35.35C18.66 34.56 19.02 33.77 19.45 32.99C19.88 32.20 20.46 31.41 21.03 30.62C21.61 29.84 22.31 29.05 22.89 28.26C23.47 27.47 24.23 26.29 24.50 25.90C24.77 25.51 24.60 25.51 24.50 25.90C24.40 26.29 24.06 27.47 23.93 28.26C23.79 29.05 23.74 29.84 23.69 30.62C23.64 31.41 23.63 32.20 23.61 32.99C23.60 33.77 23.61 34.56 23.61 35.35C23.61 36.14 23.62 36.93 23.60 37.71C23.58 38.50 23.55 39.29 23.48 40.08C23.41 40.86 23.30 41.65 23.15 42.44C23.01 43.23 22.69 44.41 22.60 44.80Z" fill="#0A1030"/><path d="M3.20 22.60C3.59 22.23 4.77 21.03 5.56 20.41C6.35 19.79 7.14 19.24 7.93 18.88C8.71 18.52 9.50 18.30 10.29 18.23C11.07 18.16 11.86 18.25 12.65 18.45C13.44 18.66 14.22 19.02 15.01 19.45C15.80 19.88 16.59 20.46 17.38 21.03C18.16 21.61 18.95 22.31 19.74 22.89C20.53 23.47 21.71 24.23 22.10 24.50C22.49 24.77 22.49 24.60 22.10 24.50C21.71 24.40 20.53 24.06 19.74 23.93C18.95 23.79 18.16 23.74 17.38 23.69C16.59 23.64 15.80 23.63 15.01 23.61C14.22 23.60 13.44 23.61 12.65 23.61C11.86 23.61 11.07 23.62 10.29 23.60C9.50 23.58 8.71 23.55 7.93 23.48C7.14 23.41 6.35 23.30 5.56 23.15C4.77 23.01 3.59 22.69 3.20 22.60Z" fill="#0A1030"/></svg>