<svg xmlns="http://www.w3.org/2000/svg" viewBox="0 0 202.77 48"><defs><linearGradient id="gN" x1="24" y1="3.2" x2="24" y2="24" gradientUnits="userSpaceOnUse"><stop offset="0" stop-color="#8FB4FF"/><stop offset="1" stop-color="#2E6BFF"/></linearGradient><linearGradient id="gE" x1="44.8" y1="24" x2="24" y2="24" gradientUnits="userSpaceOnUse"><stop offset="0" stop-color="#2E6BFF"/><stop offset="1" stop-color="#7A5CFF"/></linearGradient><linearGradient id="gW" x1="3.2" y1="24" x2="24" y2="24" gradientUnits="userSpaceOnUse"><stop offset="0" stop-color="#2E6BFF"/><stop offset="1" stop-color="#7A5CFF"/></linearGradient><linearGradient id="gS" x1="24" y1="44.8" x2="24" y2="24" gradientUnits="userSpaceOnUse"><stop offset="0" stop-color="#FF6A2D"/><stop offset="0.42" stop-color="#FF4D6D"/><stop offset="1" stop-color="#7A5CFF"/></linearGradient></defs><path d="M25.40 3.20C25.79 3.59 27.07 4.77 27.73 5.56C28.38 6.35 28.96 7.14 29.35 7.93C29.74 8.71 29.97 9.50 30.05 10.29C30.13 11.07 30.03 11.86 29.82 12.65C29.61 13.44 29.23 14.22 28.78 15.01C28.33 15.80 27.73 16.59 27.13 17.38C26.53 18.16 25.79 18.95 25.18 19.74C24.58 20.53 23.78 21.71 23.50 22.10C23.22 22.49 23.40 22.49 23.50 22.10C23.60 21.71 23.95 20.53 24.09 19.74C24.22 18.95 24.27 18.16 24.32 17.38C24.37 16.59 24.38 15.80 24.39 15.01C24.40 14.22 24.38 13.44 24.38 12.65C24.38 11.86 24.36 11.07 24.38 10.29C24.40 9.50 24.42 8.71 24.49 7.93C24.57 7.14 24.68 6.35 24.83 5.56C24.98 4.77 25.30 3.59 25.40 3.20Z" fill="url(#gN)"/><path d="M44.80 25.40C44.41 25.79 43.23 27.07 42.44 27.73C41.65 28.38 40.86 28.96 40.08 29.35C39.29 29.74 38.50 29.97 37.71 30.05C36.93 30.13 36.14 30.03 35.35 29.82C34.56 29.61 33.77 29.23 32.99 28.78C32.20 28.33 31.41 27.73 30.62 27.13C29.84 26.53 29.05 25.79 28.26 25.18C27.47 24.58 26.29 23.78 25.90 23.50C25.51 23.22 25.51 23.40 25.90 23.50C26.29 23.60 27.47 23.95 28.26 24.09C29.05 24.22 29.84 24.27 30.62 24.32C31.41 24.37 32.20 24.38 32.99 24.39C33.77 24.40 34.56 24.38 35.35 24.38C36.14 24.38 36.93 24.36 37.71 24.38C38.50 24.40 39.29 24.42 40.08 24.49C40.86 24.57 41.65 24.68 42.44 24.83C43.23 24.98 44.41 25.30 44.80 25.40Z" fill="url(#gE)"/><path d="M22.60 44.80C22.21 44.41 20.93 43.23 20.27 42.44C19.62 41.65 19.04 40.86 18.65 40.08C18.26 39.29 18.03 38.50 17.95 37.71C17.87 36.93 17.97 36.14 18.18 35.35C18.39 34.56 18.77 33.77 19.22 32.99C19.67 32.20 20.27 31.41 20.87 30.62C21.47 29.84 22.21 29.05 22.82 28.26C23.42 27.47 24.22 26.29 24.50 25.90C24.78 25.51 24.60 25.51 24.50 25.90C24.40 26.29 24.05 27.47 23.91 28.26C23.78 29.05 23.73 29.84 23.68 30.62C23.63 31.41 23.62 32.20 23.61 32.99C23.60 33.77 23.62 34.56 23.62 35.35C23.62 36.14 23.64 36.93 23.62 37.71C23.60 38.50 23.58 39.29 23.51 40.08C23.43 40.86 23.32 41.65 23.17 42.44C23.02 43.23 22.70 44.41 22.60 44.80Z" fill="url(#gS)"/><path d="M3.20 22.60C3.59 22.21 4.77 20.93 5.56 20.27C6.35 19.62 7.14 19.04 7.93 18.65C8.71 18.26 9.50 18.03 10.29 17.95C11.07 17.87 11.86 17.97 12.65 18.18C13.44 18.39 14.22 18.77 15.01 19.22C15.80 19.67 16.59 20.27 17.38 20.87C18.16 21.47 18.95 22.21 19.74 22.82C20.53 23.42 21.71 24.22 22.10 24.50C22.49 24.78 22.49 24.60 22.10 24.50C21.71 24.40 20.53 24.05 19.74 23.91C18.95 23.78 18.16 23.73 17.38 23.68C16.59 23.63 15.80 23.62 15.01 23.61C14.22 23.60 13.44 23.62 12.65 23.62C11.86 23.62 11.07 23.64 10.29 23.62C9.50 23.60 8.71 23.58 7.93 23.51C7.14 23.43 6.35 23.32 5.56 23.17C4.77 23.02 3.59 22.70 3.20 22.60Z" fill="url(#gW)"/><g transform="translate(63.000 36.500) scale(0.023148)"><path d="M562.0 30Q358.0 30 232.5 -62.5Q107.0 -155 80.0 -324L358.0 -366Q375.0 -290 433.5 -247.0Q492.0 -204 582.0 -204Q656.0 -204 696.0 -232.5Q736.0 -261 736.0 -312Q736.0 -344 720.0 -363.5Q704.0 -383 648.5 -402.0Q593.0 -421 476.0 -452Q344.0 -486 265.0 -528.0Q186.0 -570 151.0 -628.5Q116.0 -687 116.0 -770Q116.0 -874 169.0 -950.5Q222.0 -1027 318.5 -1068.5Q415.0 -1110 546.0 -1110Q673.0 -1110 771.0 -1071.0Q869.0 -1032 929.5 -960.0Q990.0 -888 1004.0 -790L726.0 -740Q719.0 -800 674.0 -835.0Q629.0 -870 552.0 -876Q477.0 -881 431.5 -856.0Q386.0 -831 386.0 -784Q386.0 -756 405.5 -737.0Q425.0 -718 486.5 -698.0Q548.0 -678 674.0 -646Q797.0 -614 871.5 -571.5Q946.0 -529 980.0 -469.5Q1014.0 -410 1014.0 -326Q1014.0 -160 894.0 -65.0Q774.0 30 562.0 30Z" fill="#0A1030"/><path d="M1164.0 -1230V-1470H1436.0V-1230ZM1164.0 0V-1080H1436.0V0Z" fill="#0A1030"/><path d="M1938.0 0 1546.0 -1080H1818.0L2074.0 -332L2330.0 -1080H2602.0L2210.0 0Z" fill="#0A1030"/><path d="M2692.0 0V-1080H2932.0V-816L2906.0 -850Q2927.0 -906 2962.0 -952.0Q2997.0 -998 3048.0 -1028Q3087.0 -1052 3133.0 -1065.5Q3179.0 -1079 3228.0 -1082.5Q3277.0 -1086 3326.0 -1080V-826Q3281.0 -840 3221.5 -835.5Q3162.0 -831 3114.0 -808Q3066.0 -786 3033.0 -749.5Q3000.0 -713 2983.0 -663.5Q2966.0 -614 2966.0 -552V0Z" fill="#0A1030"/><path d="M3882.0 30Q3714.0 30 3594.0 -45.0Q3474.0 -120 3410.0 -249.0Q3346.0 -378 3346.0 -540Q3346.0 -704 3412.5 -833.0Q3479.0 -962 3600.0 -1036.0Q3721.0 -1110 3886.0 -1110Q4077.0 -1110 4206.5 -1013.5Q4336.0 -917 4372.0 -750L4100.0 -678Q4076.0 -762 4016.5 -809.0Q3957.0 -856 3882.0 -856Q3796.0 -856 3741.0 -814.5Q3686.0 -773 3660.0 -701.5Q3634.0 -630 3634.0 -540Q3634.0 -399 3696.5 -311.5Q3759.0 -224 3882.0 -224Q3974.0 -224 4022.0 -266.0Q4070.0 -308 4094.0 -386L4372.0 -328Q4326.0 -156 4198.0 -63.0Q4070.0 30 3882.0 30Z" fill="#0A1030"/><path d="M4954.0 30Q4788.0 30 4661.5 -41.5Q4535.0 -113 4463.5 -238.5Q4392.0 -364 4392.0 -526Q4392.0 -703 4462.0 -834.0Q4532.0 -965 4655.0 -1037.5Q4778.0 -1110 4938.0 -1110Q5108.0 -1110 5227.0 -1030.0Q5346.0 -950 5403.0 -805.0Q5460.0 -660 5443.0 -464H5174.0V-564Q5174.0 -729 5121.5 -801.5Q5069.0 -874 4950.0 -874Q4811.0 -874 4745.5 -789.5Q4680.0 -705 4680.0 -540Q4680.0 -389 4745.5 -306.5Q4811.0 -224 4938.0 -224Q5018.0 -224 5075.0 -259.0Q5132.0 -294 5162.0 -360L5434.0 -282Q5373.0 -134 5241.5 -52.0Q5110.0 30 4954.0 30ZM4596.0 -464V-666H5312.0V-464Z" fill="#0A1030"/><path d="M5582.0 0V-272H5854.0V0Z" fill="#FF6A2D"/></g></svg>