<svg xmlns="http://www.w3.org/2000/svg" viewBox="0 0 48 48"><defs><linearGradient id="gN" x1="24" y1="3.2" x2="24" y2="24" gradientUnits="userSpaceOnUse"><stop offset="0" stop-color="#8FB4FF"/><stop offset="1" stop-color="#2E6BFF"/></linearGradient><linearGradient id="gE" x1="44.8" y1="24" x2="24" y2="24" gradientUnits="userSpaceOnUse"><stop offset="0" stop-color="#2E6BFF"/><stop offset="1" stop-color="#7A5CFF"/></linearGradient><linearGradient id="gW" x1="3.2" y1="24" x2="24" y2="24" gradientUnits="userSpaceOnUse"><stop offset="0" stop-color="#2E6BFF"/><stop offset="1" stop-color="#7A5CFF"/></linearGradient><linearGradient id="gS" x1="24" y1="44.8" x2="24" y2="24" gradientUnits="userSpaceOnUse"><stop offset="0" stop-color="#FF6A2D"/><stop offset="0.42" stop-color="#FF4D6D"/><stop offset="1" stop-color="#7A5CFF"/></linearGradient></defs><path d="M25.15 3.20C31.07 7.60 31.40 14.10 23.45 20.70C18.30 15.30 20.25 9.80 25.15 3.20Z" fill="url(#gN)"/><path d="M25.15 3.20C31.07 7.60 31.40 14.10 23.45 20.70C18.30 15.30 20.25 9.80 25.15 3.20Z" fill="url(#gE)" transform="rotate(90 24 24)"/><path d="M25.15 3.20C31.07 7.60 31.40 14.10 23.45 20.70C18.30 15.30 20.25 9.80 25.15 3.20Z" fill="url(#gS)" transform="rotate(180 24 24)"/><path d="M25.15 3.20C31.07 7.60 31.40 14.10 23.45 20.70C18.30 15.30 20.25 9.80 25.15 3.20Z" fill="url(#gW)" transform="rotate(270 24 24)"/></svg>