<svg xmlns="http://www.w3.org/2000/svg" viewBox="0 0 48 48"><path d="M25.15 3.20C30.67 7.60 30.90 14.80 23.45 21.40C18.70 16.00 20.59 9.80 25.15 3.20Z" fill="#FFFFFF"/><path d="M25.15 3.20C30.67 7.60 30.90 14.80 23.45 21.40C18.70 16.00 20.59 9.80 25.15 3.20Z" fill="#FFFFFF" transform="rotate(90 24 24)"/><path d="M25.15 3.20C30.67 7.60 30.90 14.80 23.45 21.40C18.70 16.00 20.59 9.80 25.15 3.20Z" fill="#FFFFFF" transform="rotate(180 24 24)"/><path d="M25.15 3.20C30.67 7.60 30.90 14.80 23.45 21.40C18.70 16.00 20.59 9.80 25.15 3.20Z" fill="#FFFFFF" transform="rotate(270 24 24)"/></svg>