<svg xmlns="http://www.w3.org/2000/svg" viewBox="0 0 48 48"><path d="M25.15 3.20C31.07 7.60 31.40 14.10 23.45 20.70C18.30 15.30 20.25 9.80 25.15 3.20Z" fill="#0A1030"/><path d="M25.15 3.20C31.07 7.60 31.40 14.10 23.45 20.70C18.30 15.30 20.25 9.80 25.15 3.20Z" fill="#0A1030" transform="rotate(90 24 24)"/><path d="M25.15 3.20C31.07 7.60 31.40 14.10 23.45 20.70C18.30 15.30 20.25 9.80 25.15 3.20Z" fill="#0A1030" transform="rotate(180 24 24)"/><path d="M25.15 3.20C31.07 7.60 31.40 14.10 23.45 20.70C18.30 15.30 20.25 9.80 25.15 3.20Z" fill="#0A1030" transform="rotate(270 24 24)"/></svg>