<svg xmlns="http://www.w3.org/2000/svg" viewBox="0 0 48 48"><defs><linearGradient id="gN" x1="24" y1="3.2" x2="24" y2="24" gradientUnits="userSpaceOnUse"><stop offset="0" stop-color="#8FB4FF"/><stop offset="1" stop-color="#2E6BFF"/></linearGradient><linearGradient id="gE" x1="44.8" y1="24" x2="24" y2="24" gradientUnits="userSpaceOnUse"><stop offset="0" stop-color="#2E6BFF"/><stop offset="1" stop-color="#7A5CFF"/></linearGradient><linearGradient id="gW" x1="3.2" y1="24" x2="24" y2="24" gradientUnits="userSpaceOnUse"><stop offset="0" stop-color="#2E6BFF"/><stop offset="1" stop-color="#7A5CFF"/></linearGradient><linearGradient id="gS" x1="24" y1="44.8" x2="24" y2="24" gradientUnits="userSpaceOnUse"><stop offset="0" stop-color="#FF6A2D"/><stop offset="0.42" stop-color="#FF4D6D"/><stop offset="1" stop-color="#7A5CFF"/></linearGradient></defs><path d="M25.40 1.60C25.86 2.00 27.41 3.20 28.19 4.00C28.97 4.80 29.63 5.60 30.07 6.40C30.50 7.20 30.74 8.00 30.80 8.80C30.86 9.60 30.71 10.40 30.44 11.20C30.17 12.00 29.70 12.80 29.17 13.60C28.65 14.40 27.94 15.20 27.27 16.00C26.60 16.80 25.77 17.60 25.14 18.40C24.51 19.20 23.77 20.40 23.50 20.80C23.23 21.20 23.49 21.20 23.50 20.80C23.51 20.40 23.60 19.20 23.55 18.40C23.51 17.60 23.33 16.80 23.21 16.00C23.08 15.20 22.92 14.40 22.81 13.60C22.70 12.80 22.59 12.00 22.55 11.20C22.51 10.40 22.50 9.60 22.58 8.80C22.66 8.00 22.79 7.20 23.03 6.40C23.26 5.60 23.59 4.80 23.99 4.00C24.38 3.20 25.16 2.00 25.40 1.60Z" fill="url(#gN)"/><path d="M46.40 25.40C46.00 25.86 44.80 27.41 44.00 28.19C43.20 28.97 42.40 29.63 41.60 30.07C40.80 30.50 40.00 30.74 39.20 30.80C38.40 30.86 37.60 30.71 36.80 30.44C36.00 30.17 35.20 29.70 34.40 29.17C33.60 28.65 32.80 27.94 32.00 27.27C31.20 26.60 30.40 25.77 29.60 25.14C28.80 24.51 27.60 23.77 27.20 23.50C26.80 23.23 26.80 23.49 27.20 23.50C27.60 23.51 28.80 23.60 29.60 23.55C30.40 23.51 31.20 23.33 32.00 23.21C32.80 23.08 33.60 22.92 34.40 22.81C35.20 22.70 36.00 22.59 36.80 22.55C37.60 22.51 38.40 22.50 39.20 22.58C40.00 22.66 40.80 22.79 41.60 23.03C42.40 23.26 43.20 23.59 44.00 23.99C44.80 24.38 46.00 25.16 46.40 25.40Z" fill="url(#gE)"/><path d="M22.60 46.40C22.14 46.00 20.59 44.80 19.81 44.00C19.03 43.20 18.37 42.40 17.93 41.60C17.50 40.80 17.26 40.00 17.20 39.20C17.14 38.40 17.29 37.60 17.56 36.80C17.83 36.00 18.30 35.20 18.83 34.40C19.35 33.60 20.06 32.80 20.73 32.00C21.40 31.20 22.23 30.40 22.86 29.60C23.49 28.80 24.23 27.60 24.50 27.20C24.77 26.80 24.51 26.80 24.50 27.20C24.49 27.60 24.40 28.80 24.45 29.60C24.49 30.40 24.67 31.20 24.79 32.00C24.92 32.80 25.08 33.60 25.19 34.40C25.30 35.20 25.41 36.00 25.45 36.80C25.49 37.60 25.50 38.40 25.42 39.20C25.34 40.00 25.21 40.80 24.97 41.60C24.74 42.40 24.41 43.20 24.01 44.00C23.62 44.80 22.84 46.00 22.60 46.40Z" fill="url(#gS)"/><path d="M1.60 22.60C2.00 22.14 3.20 20.59 4.00 19.81C4.80 19.03 5.60 18.37 6.40 17.93C7.20 17.50 8.00 17.26 8.80 17.20C9.60 17.14 10.40 17.29 11.20 17.56C12.00 17.83 12.80 18.30 13.60 18.83C14.40 19.35 15.20 20.06 16.00 20.73C16.80 21.40 17.60 22.23 18.40 22.86C19.20 23.49 20.40 24.23 20.80 24.50C21.20 24.77 21.20 24.51 20.80 24.50C20.40 24.49 19.20 24.40 18.40 24.45C17.60 24.49 16.80 24.67 16.00 24.79C15.20 24.92 14.40 25.08 13.60 25.19C12.80 25.30 12.00 25.41 11.20 25.45C10.40 25.49 9.60 25.50 8.80 25.42C8.00 25.34 7.20 25.21 6.40 24.97C5.60 24.74 4.80 24.41 4.00 24.01C3.20 23.62 2.00 22.84 1.60 22.60Z" fill="url(#gW)"/></svg>