<svg xmlns="http://www.w3.org/2000/svg" viewBox="0 0 48 48"><path d="M25.40 2.40C25.85 2.79 27.32 3.97 28.08 4.76C28.83 5.55 29.48 6.34 29.91 7.12C30.34 7.91 30.59 8.70 30.66 9.49C30.74 10.27 30.62 11.06 30.37 11.85C30.12 12.64 29.68 13.42 29.17 14.21C28.67 15.00 27.99 15.79 27.33 16.57C26.67 17.36 25.86 18.15 25.22 18.94C24.58 19.73 23.79 20.91 23.50 21.30C23.21 21.69 23.45 21.69 23.50 21.30C23.55 20.91 23.78 19.73 23.82 18.94C23.86 18.15 23.79 17.36 23.74 16.57C23.70 15.79 23.61 15.00 23.56 14.21C23.50 13.42 23.43 12.64 23.40 11.85C23.38 11.06 23.36 10.27 23.41 9.49C23.46 8.70 23.54 7.91 23.69 7.12C23.85 6.34 24.08 5.55 24.36 4.76C24.65 3.97 25.23 2.79 25.40 2.40Z" fill="#0A1030"/><path d="M45.60 25.40C45.21 25.85 44.02 27.32 43.24 28.08C42.45 28.83 41.66 29.48 40.88 29.91C40.09 30.34 39.30 30.59 38.51 30.66C37.73 30.74 36.94 30.62 36.15 30.37C35.36 30.12 34.58 29.68 33.79 29.17C33.00 28.67 32.21 27.99 31.43 27.33C30.64 26.67 29.85 25.86 29.06 25.22C28.27 24.58 27.09 23.79 26.70 23.50C26.31 23.21 26.31 23.45 26.70 23.50C27.09 23.55 28.27 23.78 29.06 23.82C29.85 23.86 30.64 23.79 31.43 23.74C32.21 23.70 33.00 23.61 33.79 23.56C34.58 23.50 35.36 23.43 36.15 23.40C36.94 23.38 37.73 23.36 38.51 23.41C39.30 23.46 40.09 23.54 40.88 23.69C41.66 23.85 42.45 24.08 43.24 24.36C44.02 24.65 45.21 25.23 45.60 25.40Z" fill="#0A1030"/><path d="M22.60 45.60C22.15 45.21 20.68 44.02 19.92 43.24C19.17 42.45 18.52 41.66 18.09 40.88C17.66 40.09 17.41 39.30 17.34 38.51C17.26 37.73 17.38 36.94 17.63 36.15C17.88 35.36 18.32 34.58 18.83 33.79C19.33 33.00 20.01 32.21 20.67 31.43C21.33 30.64 22.14 29.85 22.78 29.06C23.42 28.27 24.21 27.09 24.50 26.70C24.79 26.31 24.55 26.31 24.50 26.70C24.45 27.09 24.22 28.27 24.18 29.06C24.14 29.85 24.21 30.64 24.26 31.43C24.30 32.21 24.39 33.00 24.44 33.79C24.50 34.58 24.57 35.36 24.60 36.15C24.62 36.94 24.64 37.73 24.59 38.51C24.54 39.30 24.46 40.09 24.31 40.88C24.15 41.66 23.92 42.45 23.64 43.24C23.35 44.02 22.77 45.21 22.60 45.60Z" fill="#0A1030"/><path d="M2.40 22.60C2.79 22.15 3.97 20.68 4.76 19.92C5.55 19.17 6.34 18.52 7.12 18.09C7.91 17.66 8.70 17.41 9.49 17.34C10.27 17.26 11.06 17.38 11.85 17.63C12.64 17.88 13.42 18.32 14.21 18.83C15.00 19.33 15.79 20.01 16.57 20.67C17.36 21.33 18.15 22.14 18.94 22.78C19.73 23.42 20.91 24.21 21.30 24.50C21.69 24.79 21.69 24.55 21.30 24.50C20.91 24.45 19.73 24.22 18.94 24.18C18.15 24.14 17.36 24.21 16.57 24.26C15.79 24.30 15.00 24.39 14.21 24.44C13.42 24.50 12.64 24.57 11.85 24.60C11.06 24.62 10.27 24.64 9.49 24.59C8.70 24.54 7.91 24.46 7.12 24.31C6.34 24.15 5.55 23.92 4.76 23.64C3.97 23.35 2.79 22.77 2.40 22.60Z" fill="#0A1030"/></svg>