<svg xmlns="http://www.w3.org/2000/svg" viewBox="0 0 48 48"><path d="M25.40 3.20C25.81 3.59 27.17 4.77 27.87 5.56C28.57 6.35 29.18 7.14 29.60 7.93C30.01 8.71 30.26 9.50 30.35 10.29C30.43 11.07 30.34 11.86 30.12 12.65C29.90 13.44 29.50 14.22 29.03 15.01C28.56 15.80 27.93 16.59 27.30 17.38C26.67 18.16 25.89 18.95 25.26 19.74C24.63 20.53 23.79 21.71 23.50 22.10C23.21 22.49 23.40 22.49 23.50 22.10C23.60 21.71 23.96 20.53 24.10 19.74C24.23 18.95 24.28 18.16 24.32 17.38C24.37 16.59 24.37 15.80 24.37 15.01C24.38 14.22 24.35 13.44 24.35 12.65C24.34 11.86 24.32 11.07 24.33 10.29C24.35 9.50 24.37 8.71 24.44 7.93C24.52 7.14 24.63 6.35 24.79 5.56C24.95 4.77 25.30 3.59 25.40 3.20Z" fill="#0A1030"/><path d="M44.80 25.40C44.41 25.81 43.23 27.17 42.44 27.87C41.65 28.57 40.86 29.18 40.08 29.60C39.29 30.01 38.50 30.26 37.71 30.35C36.93 30.43 36.14 30.34 35.35 30.12C34.56 29.90 33.77 29.50 32.99 29.03C32.20 28.56 31.41 27.93 30.62 27.30C29.84 26.67 29.05 25.89 28.26 25.26C27.47 24.63 26.29 23.79 25.90 23.50C25.51 23.21 25.51 23.40 25.90 23.50C26.29 23.60 27.47 23.96 28.26 24.10C29.05 24.23 29.84 24.28 30.62 24.32C31.41 24.37 32.20 24.37 32.99 24.37C33.77 24.38 34.56 24.35 35.35 24.35C36.14 24.34 36.93 24.32 37.71 24.33C38.50 24.35 39.29 24.37 40.08 24.44C40.86 24.52 41.65 24.63 42.44 24.79C43.23 24.95 44.41 25.30 44.80 25.40Z" fill="#0A1030"/><path d="M22.60 44.80C22.19 44.41 20.83 43.23 20.13 42.44C19.43 41.65 18.82 40.86 18.40 40.08C17.99 39.29 17.74 38.50 17.65 37.71C17.57 36.93 17.66 36.14 17.88 35.35C18.10 34.56 18.50 33.77 18.97 32.99C19.44 32.20 20.07 31.41 20.70 30.62C21.33 29.84 22.11 29.05 22.74 28.26C23.37 27.47 24.21 26.29 24.50 25.90C24.79 25.51 24.60 25.51 24.50 25.90C24.40 26.29 24.04 27.47 23.90 28.26C23.77 29.05 23.72 29.84 23.68 30.62C23.63 31.41 23.63 32.20 23.63 32.99C23.62 33.77 23.65 34.56 23.65 35.35C23.66 36.14 23.68 36.93 23.67 37.71C23.65 38.50 23.63 39.29 23.56 40.08C23.48 40.86 23.37 41.65 23.21 42.44C23.05 43.23 22.70 44.41 22.60 44.80Z" fill="#0A1030"/><path d="M3.20 22.60C3.59 22.19 4.77 20.83 5.56 20.13C6.35 19.43 7.14 18.82 7.93 18.40C8.71 17.99 9.50 17.74 10.29 17.65C11.07 17.57 11.86 17.66 12.65 17.88C13.44 18.10 14.22 18.50 15.01 18.97C15.80 19.44 16.59 20.07 17.38 20.70C18.16 21.33 18.95 22.11 19.74 22.74C20.53 23.37 21.71 24.21 22.10 24.50C22.49 24.79 22.49 24.60 22.10 24.50C21.71 24.40 20.53 24.04 19.74 23.90C18.95 23.77 18.16 23.72 17.38 23.68C16.59 23.63 15.80 23.63 15.01 23.63C14.22 23.62 13.44 23.65 12.65 23.65C11.86 23.66 11.07 23.68 10.29 23.67C9.50 23.65 8.71 23.63 7.93 23.56C7.14 23.48 6.35 23.37 5.56 23.21C4.77 23.05 3.59 22.70 3.20 22.60Z" fill="#0A1030"/></svg>