<svg xmlns="http://www.w3.org/2000/svg" viewBox="0 0 48 48"><defs><linearGradient id="gN" x1="24" y1="3.2" x2="24" y2="24" gradientUnits="userSpaceOnUse"><stop offset="0" stop-color="#8FB4FF"/><stop offset="1" stop-color="#2E6BFF"/></linearGradient><linearGradient id="gE" x1="44.8" y1="24" x2="24" y2="24" gradientUnits="userSpaceOnUse"><stop offset="0" stop-color="#2E6BFF"/><stop offset="1" stop-color="#7A5CFF"/></linearGradient><linearGradient id="gW" x1="3.2" y1="24" x2="24" y2="24" gradientUnits="userSpaceOnUse"><stop offset="0" stop-color="#2E6BFF"/><stop offset="1" stop-color="#7A5CFF"/></linearGradient><linearGradient id="gS" x1="24" y1="44.8" x2="24" y2="24" gradientUnits="userSpaceOnUse"><stop offset="0" stop-color="#FF6A2D"/><stop offset="0.42" stop-color="#FF4D6D"/><stop offset="1" stop-color="#7A5CFF"/></linearGradient></defs><path d="M25.40 3.20C25.79 3.59 27.07 4.77 27.73 5.56C28.38 6.35 28.96 7.14 29.35 7.93C29.74 8.71 29.97 9.50 30.05 10.29C30.13 11.07 30.03 11.86 29.82 12.65C29.61 13.44 29.23 14.22 28.78 15.01C28.33 15.80 27.73 16.59 27.13 17.38C26.53 18.16 25.79 18.95 25.18 19.74C24.58 20.53 23.78 21.71 23.50 22.10C23.22 22.49 23.40 22.49 23.50 22.10C23.60 21.71 23.95 20.53 24.09 19.74C24.22 18.95 24.27 18.16 24.32 17.38C24.37 16.59 24.38 15.80 24.39 15.01C24.40 14.22 24.38 13.44 24.38 12.65C24.38 11.86 24.36 11.07 24.38 10.29C24.40 9.50 24.42 8.71 24.49 7.93C24.57 7.14 24.68 6.35 24.83 5.56C24.98 4.77 25.30 3.59 25.40 3.20Z" fill="url(#gN)"/><path d="M44.80 25.40C44.41 25.79 43.23 27.07 42.44 27.73C41.65 28.38 40.86 28.96 40.08 29.35C39.29 29.74 38.50 29.97 37.71 30.05C36.93 30.13 36.14 30.03 35.35 29.82C34.56 29.61 33.77 29.23 32.99 28.78C32.20 28.33 31.41 27.73 30.62 27.13C29.84 26.53 29.05 25.79 28.26 25.18C27.47 24.58 26.29 23.78 25.90 23.50C25.51 23.22 25.51 23.40 25.90 23.50C26.29 23.60 27.47 23.95 28.26 24.09C29.05 24.22 29.84 24.27 30.62 24.32C31.41 24.37 32.20 24.38 32.99 24.39C33.77 24.40 34.56 24.38 35.35 24.38C36.14 24.38 36.93 24.36 37.71 24.38C38.50 24.40 39.29 24.42 40.08 24.49C40.86 24.57 41.65 24.68 42.44 24.83C43.23 24.98 44.41 25.30 44.80 25.40Z" fill="url(#gE)"/><path d="M22.60 44.80C22.21 44.41 20.93 43.23 20.27 42.44C19.62 41.65 19.04 40.86 18.65 40.08C18.26 39.29 18.03 38.50 17.95 37.71C17.87 36.93 17.97 36.14 18.18 35.35C18.39 34.56 18.77 33.77 19.22 32.99C19.67 32.20 20.27 31.41 20.87 30.62C21.47 29.84 22.21 29.05 22.82 28.26C23.42 27.47 24.22 26.29 24.50 25.90C24.78 25.51 24.60 25.51 24.50 25.90C24.40 26.29 24.05 27.47 23.91 28.26C23.78 29.05 23.73 29.84 23.68 30.62C23.63 31.41 23.62 32.20 23.61 32.99C23.60 33.77 23.62 34.56 23.62 35.35C23.62 36.14 23.64 36.93 23.62 37.71C23.60 38.50 23.58 39.29 23.51 40.08C23.43 40.86 23.32 41.65 23.17 42.44C23.02 43.23 22.70 44.41 22.60 44.80Z" fill="url(#gS)"/><path d="M3.20 22.60C3.59 22.21 4.77 20.93 5.56 20.27C6.35 19.62 7.14 19.04 7.93 18.65C8.71 18.26 9.50 18.03 10.29 17.95C11.07 17.87 11.86 17.97 12.65 18.18C13.44 18.39 14.22 18.77 15.01 19.22C15.80 19.67 16.59 20.27 17.38 20.87C18.16 21.47 18.95 22.21 19.74 22.82C20.53 23.42 21.71 24.22 22.10 24.50C22.49 24.78 22.49 24.60 22.10 24.50C21.71 24.40 20.53 24.05 19.74 23.91C18.95 23.78 18.16 23.73 17.38 23.68C16.59 23.63 15.80 23.62 15.01 23.61C14.22 23.60 13.44 23.62 12.65 23.62C11.86 23.62 11.07 23.64 10.29 23.62C9.50 23.60 8.71 23.58 7.93 23.51C7.14 23.43 6.35 23.32 5.56 23.17C4.77 23.02 3.59 22.70 3.20 22.60Z" fill="url(#gW)"/></svg>